<svg version="1.1" id="Layer_1" xmlns="http://www.w3.org/2000/svg" xmlns:xlink="http://www.w3.org/1999/xlink" x="0px" y="0px"
	width="100%" viewBox="0 0 576 574" enable-background="new 0 0 576 574" xml:space="preserve">
<path fill="#FFFFFF" opacity="1.000000" stroke="none" 
	d="
M319.000000,575.000000 
	C214.000000,575.000000 109.499977,574.978455 5.000107,575.095398 
	C1.576056,575.099243 0.903557,574.423584 0.905490,570.999939 
	C1.011975,382.333344 1.011975,193.666672 0.905490,5.000053 
	C0.903557,1.576419 1.576421,0.903569 5.000053,0.905493 
	C194.333328,1.011936 383.666656,1.011936 572.999939,0.905493 
	C576.423584,0.903569 577.096375,1.576419 577.094482,5.000053 
	C576.987976,193.666672 576.988037,382.333344 577.094482,570.999939 
	C577.096436,574.423584 576.424194,575.100891 572.999878,575.095886 
	C488.500031,574.973389 404.000000,575.000000 319.000000,575.000000 
z"/>
<path fill="#192E4D" opacity="1.000000" stroke="none" 
	d="
M348.399536,60.534172 
	C416.859283,75.438065 473.103729,132.844742 486.001923,201.089783 
	C497.349518,261.130463 483.251160,314.792633 442.129303,359.874939 
	C401.680237,404.219696 350.368073,423.371948 290.428864,418.175232 
	C254.480774,415.058502 222.551895,401.571564 194.400055,379.058533 
	C193.626465,378.439911 192.788025,377.902405 191.910889,377.277985 
	C190.462570,378.721191 191.215317,380.463104 191.212189,381.980408 
	C191.155014,409.642731 191.185699,437.305206 191.166626,464.967651 
	C191.142395,500.086456 166.236328,527.215027 131.321182,530.439880 
	C127.493439,530.793396 126.614067,529.864929 126.618187,526.077515 
	C126.723030,429.592316 126.395439,333.105774 126.791588,236.622101 
	C127.148842,149.612381 188.298752,76.131775 273.599670,59.334286 
	C298.431213,54.444454 323.274811,54.995975 348.399536,60.534172 
z"/>
<path fill="#FEFFFF" opacity="1.000000" stroke="none" 
	d="
M343.133789,349.212769 
	C275.861572,369.559052 207.501373,328.815430 193.407730,260.328888 
	C179.929993,194.835281 226.117294,130.383850 292.701324,121.771011 
	C366.893707,112.174019 430.163574,172.062134 424.863190,246.868866 
	C421.551117,293.613373 388.435181,335.221985 343.133789,349.212769 
z"/>
<path fill="#737274" opacity="1.000000" stroke="none" 
	d="
M313.919861,221.063751 
	C333.308014,232.045441 347.691956,247.186356 357.285980,267.682129 
	C346.645355,268.749847 336.732117,267.576263 326.961578,265.054108 
	C297.331329,257.405273 275.234985,240.072998 260.717529,213.129791 
	C258.110168,208.290726 258.199371,208.109283 263.872955,208.181534 
	C281.460449,208.405472 298.118256,212.354279 313.919861,221.063751 
z"/>
</svg>